<?xml version="1.0" encoding="UTF-8"?>
<svg width="346px" height="185px" viewBox="0 0 346 185" version="1.1" xmlns="http://www.w3.org/2000/svg" xmlns:xlink="http://www.w3.org/1999/xlink">
    <!-- Generator: Sketch 51.3 (57544) - http://www.bohemiancoding.com/sketch -->
    <title>ic_zerodepreciation</title>
    <desc>Created with Sketch.</desc>
    <defs>
        <polygon id="path-1" points="1.47527221 1.60077724 22.0388947 1.60077724 22.0388947 15.467871 1.47527221 15.467871"></polygon>
        <polygon id="path-3" points="0 131.530637 99.8348303 131.530637 99.8348303 1.6046268 0 1.6046268"></polygon>
    </defs>
    <g id="Page-1" stroke="none" stroke-width="1" fill="none" fill-rule="evenodd">
        <g id="Artboard" transform="translate(-323.000000, -65.000000)">
            <g id="ic_zerodepreciation" transform="translate(317.000000, 52.000000)">
                <g id="Group-4">
                    <g id="Group-6">
                        <g id="Group-68">
                            <g id="ic_Noclaimbonus-Copy">
                                <g id="Group-13">
                                    <rect id="Rectangle-2" x="0" y="0" width="360" height="217"></rect>
                                </g>
                            </g>
                            <g id="Group-62" transform="translate(9.000000, 13.000000)">
                                <g id="Group-26">
                                    <path d="M23.5476759,117.11983 C25.5179047,116.421302 27.4924354,116.3669 29.2325174,116.591038 C28.856109,117.774836 28.6582258,119.030446 28.5463787,120.312169 C28.5076625,120.692987 28.473248,121.071628 28.4581916,121.454622 C28.4560407,121.574307 28.4302299,121.691817 28.4302299,121.811502 C28.4302299,121.959477 28.4474371,122.100923 28.4517389,122.244546 C28.4710971,124.357539 28.8475054,126.446595 29.6110766,128.400733 C28.043067,131.986946 25.8405405,135.068304 24.0466858,137.248756 C20.9730428,132.909612 19.1404719,127.610809 19.1297174,121.868081 C19.1297174,121.837615 19.1254156,121.809326 19.1254156,121.783213 C19.1254156,121.702697 19.1340192,121.622181 19.1340192,121.543842 C19.1555282,120.46232 19.2480172,119.37427 19.4028823,118.292748 C20.4697311,118.086019 21.8248011,117.726962 23.5476759,117.11983 M22.5840705,108.959455 C26.2104961,102.544312 32.0803154,98.2421621 38.6190661,96.4838733 C38.9911726,97.2999108 39.4686735,98.2443382 40.0945868,99.3432688 C41.1829446,101.243004 41.5873147,103.273306 41.6690491,105.099053 C37.8597967,105.958613 34.5258942,108.110776 32.1620498,111.087681 C28.2753647,111.496788 24.5112813,111.083329 21.7430668,110.582826 C22.0054771,110.038801 22.280793,109.4926 22.5840705,108.959455 M62.3026792,105.875921 C61.1497942,107.877933 59.4957484,109.298927 57.8890224,110.289052 C55.1509206,107.242512 51.3373663,105.203506 47.0549148,104.774815 C46.2784382,101.340929 46.0870076,98.0201999 46.0977622,95.5916723 C50.2812721,95.7091817 54.4970455,96.8385776 58.3815797,99.086489 C60.452901,100.283344 62.2811701,101.732627 63.8921978,103.355997 C63.4082442,104.052349 62.8812726,104.868387 62.3026792,105.875921 M29.5336441,142.945786 C29.8648834,141.931723 30.1982736,140.643472 30.5080039,138.959171 C30.8887141,136.885347 31.8200559,135.12053 32.8783011,133.708241 C34.0311861,134.976907 35.3970106,136.095423 36.9585675,137.000681 C39.3976936,138.410793 42.0411556,139.139787 44.6695614,139.24424 C46.5666594,142.332126 47.8313915,145.598452 48.6143208,148.144489 C47.547472,148.277231 46.4612651,148.351219 45.3600018,148.351219 C39.4062972,148.351219 33.9386971,146.323093 29.5336441,142.945786 M55.88653,146.125068 C55.2864276,145.420012 54.5379127,144.617031 53.5872128,143.700893 C51.9589778,142.138453 50.9975234,140.236541 50.4103263,138.460844 C54.0862227,137.29663 57.3835598,134.889863 59.5989918,131.395047 C63.2705863,131.207902 66.7873157,131.730166 69.4415323,132.317713 C66.8109757,138.4739 61.9542326,143.433232 55.88653,146.125068 M71.4418738,119.302459 C71.5085518,120.024924 71.5709281,120.751741 71.5795317,121.493791 C71.5859844,121.759276 71.5816826,122.026936 71.5795317,122.29242 C71.5623245,123.197678 71.4977973,124.087703 71.3967048,124.966847 C70.5019284,125.145287 69.4651922,125.393363 68.2241202,125.769828 C65.9721228,126.459652 63.7502381,126.324734 61.8768,125.911275 C61.9692889,125.50652 61.9886471,125.097413 62.0510233,124.68613 C62.0617778,124.620847 62.0682305,124.553388 62.0768341,124.485929 C62.1585685,123.90491 62.2316993,123.326068 62.2532083,122.740697 C62.2682647,122.431691 62.2897737,122.122684 62.2897737,121.811502 C62.2897737,119.350333 61.7735566,117.011025 60.8529693,114.898032 C63.4233006,112.454272 66.215175,110.606763 68.3510235,109.37509 C70.0158239,112.452096 71.0697672,115.827227 71.4418738,119.302459 M83.1600033,121.811502 C83.1600033,121.313175 83.1083816,120.832257 83.0890234,120.336106 C83.0675144,119.881301 83.0567599,119.42432 83.0223454,118.969515 C81.5790883,99.1800613 65.290286,83.5665432 45.3600018,83.5665432 C25.0726674,83.5665432 8.56877467,99.7480234 7.6481874,120.042333 C7.62237654,120.558068 7.57720754,121.069452 7.57075482,121.585188 C7.57075482,121.661351 7.5600003,121.733162 7.5600003,121.811502 C7.5600003,122.057401 7.59226387,122.296772 7.59441478,122.540496 C7.74927993,135.655851 14.5310829,148.349042 26.5998099,155.329971 C44.723334,165.814422 67.8154482,159.447153 78.1742059,141.11351 C81.5382211,135.157524 83.1234379,128.672746 83.1406452,122.270659 C83.1406452,122.116156 83.1600033,121.966005 83.1600033,121.811502" id="Fill-1" fill="#35393A"></path>
                                    <path d="M45.3578467,150.518549 C29.9056894,150.518549 17.3758647,137.927471 17.3758647,122.397608 C17.3758647,106.863413 29.9056894,94.2745005 45.3578467,94.2745005 C60.8164694,94.2745005 73.3441389,106.863413 73.3441389,122.397608 C73.3441389,137.927471 60.8164694,150.518549 45.3578467,150.518549 M45.3578467,81.8783302 C23.0912233,81.8783302 5.0400002,100.019965 5.0400002,122.397608 C5.0400002,144.77525 23.0912233,162.912554 45.3578467,162.912554 C67.6287803,162.912554 85.6800034,144.77525 85.6800034,122.397608 C85.6800034,100.019965 67.6287803,81.8783302 45.3578467,81.8783302" id="Fill-3" fill="#000106"></path>
                                    <path d="M57.9600023,121.128196 C57.9600023,127.88704 52.5048836,133.368827 45.7810825,133.368827 C39.05512,133.368827 33.6000013,127.88704 33.6000013,121.128196 C33.6000013,114.369353 39.05512,108.889738 45.7810825,108.889738 C52.5048836,108.889738 57.9600023,114.369353 57.9600023,121.128196" id="Fill-5" fill="#6D6D6D"></path>
                                    <path d="M210.026774,119.650924 C211.99474,118.952376 213.971309,118.895796 215.709141,119.122117 C215.339206,120.303773 215.134882,121.561594 215.025192,122.843353 C214.984327,123.224182 214.952065,123.60501 214.93701,123.985838 C214.934859,124.103351 214.911201,124.220864 214.911201,124.340553 C214.911201,124.490708 214.926256,124.632158 214.930558,124.777961 C214.947764,126.888838 215.324151,128.977953 216.085528,130.932147 C214.517607,134.518461 212.319508,137.59773 210.521454,139.78042 C207.447985,135.441154 205.61767,130.140024 205.604765,124.399309 L205.604765,124.312263 C205.604765,124.231745 205.613368,124.155579 205.613368,124.075061 C205.632725,122.993509 205.725209,121.905428 205.882216,120.823875 C206.951155,120.61714 208.306148,120.258073 210.026774,119.650924 M209.065374,111.488142 C212.687292,105.072817 218.558928,100.770545 225.099457,99.0143826 C225.467241,99.8304432 225.942564,100.774897 226.570592,101.873859 C227.658888,103.771472 228.058934,105.806183 228.147116,107.629807 C224.331628,108.489391 221.004367,110.641615 218.640657,113.618604 C214.749892,114.027722 210.990324,113.614252 208.217966,113.113734 C208.482512,112.567518 208.762114,112.021301 209.065374,111.488142 M248.777421,108.406697 C247.626752,110.410942 245.97065,111.829799 244.366166,112.819953 C241.623919,109.773326 237.810581,107.734263 233.532675,107.303383 C232.758393,103.871576 232.562672,100.550753 232.573426,98.1221563 C236.758849,98.2374928 240.972231,99.3690969 244.858695,101.617072 C246.923447,102.813961 248.758064,104.263285 250.369,105.886701 C249.880772,106.580897 249.358132,107.399134 248.777421,108.406697 M216.012401,145.475435 C216.341471,144.465696 216.676993,143.175232 216.986706,141.490883 C217.365243,139.414825 218.298683,137.652134 219.354717,136.237629 C220.511838,137.508507 221.875434,138.627054 223.432601,139.530162 C225.87804,140.944667 228.521352,141.671505 231.145306,141.778137 C233.040146,144.863934 234.304806,148.130353 235.089841,150.676462 C234.025204,150.809208 232.939059,150.883197 231.833557,150.883197 C225.886643,150.883197 220.412902,148.852838 216.012401,145.475435 M242.361637,148.656984 C241.761569,147.951907 241.015247,147.15108 240.0603,146.23274 C238.434308,144.670256 237.475059,142.766114 236.890046,140.992542 C240.563583,139.830472 243.856431,137.421461 246.078189,133.924369 C249.747424,133.739395 253.266104,134.26385 255.915868,134.849238 C253.28331,141.005599 248.426843,145.962896 242.361637,148.656984 M257.920397,121.831438 C257.987071,122.5561 258.042992,123.282938 258.051595,124.025009 C258.060198,124.290501 258.053746,124.558169 258.053746,124.823661 C258.040841,125.728944 257.969865,126.618994 257.870929,127.498163 C256.976204,127.676609 255.937376,127.924691 254.700676,128.301167 C252.448807,128.988834 250.224898,128.853912 248.351566,128.440441 C248.437597,128.037851 248.465558,127.626557 248.523629,127.219615 C248.534383,127.152154 248.542986,127.084693 248.55374,127.017232 C248.633319,126.43402 248.706445,125.855161 248.730104,125.27195 C248.743008,124.962935 248.766667,124.656096 248.766667,124.340553 C248.766667,121.879314 248.248328,119.542116 247.327794,117.429063 C249.90228,114.983057 252.689694,113.137672 254.827572,111.905965 C256.485825,114.980881 257.548312,118.356108 257.920397,121.831438 M269.640011,124.340553 C269.640011,123.844388 269.58409,123.36128 269.566884,122.867291 C269.541075,122.410297 269.532472,121.955479 269.493758,121.500662 C268.052733,101.708471 251.760556,86.0988627 231.833557,86.0988627 C211.551678,86.0988627 195.044423,102.280801 194.126039,122.573509 C194.095928,123.087084 194.055063,123.600658 194.055063,124.114232 C194.048611,124.192574 194.040008,124.264387 194.040008,124.340553 C194.040008,124.588635 194.067968,124.825837 194.07442,125.071743 C194.227126,138.18747 201.010694,150.881021 213.074432,157.862148 C231.203378,168.346895 254.287726,161.979446 264.652346,143.645283 C268.01617,137.689129 269.594844,131.204167 269.614201,124.801899 C269.614201,124.647392 269.640011,124.497236 269.640011,124.340553" id="Fill-7" fill="#35393A"></path>
                                    <g id="Group-11" transform="translate(191.520008, 83.566543)">
                                        <polygon id="Clip-10" points="0.225999798 0.410571179 80.4615032 0.410571179 80.4615032 81.0342238 0.225999798 81.0342238"></polygon>
                                        <path d="M40.3441803,68.7035627 C24.9659018,68.7035627 12.5037498,56.1783329 12.5037498,40.7227207 C12.5037498,25.2714179 24.9659018,12.739724 40.3441803,12.739724 C55.7203146,12.739724 68.1888993,25.2714179 68.1888993,40.7227207 C68.1888993,56.1783329 55.7203146,68.7035627 40.3441803,68.7035627 M40.3441803,0.410571179 C18.1859079,0.410571179 0.225999798,18.4582789 0.225999798,40.7227207 C0.225999798,62.9893171 18.1859079,81.0348702 40.3441803,81.0348702 C62.4981644,81.0348702 80.4623609,62.9893171 80.4623609,40.7227207 C80.4623609,18.4582789 62.4981644,0.410571179 40.3441803,0.410571179" id="Fill-9" fill="#000106"></path>
                                    </g>
                                    <path d="M244.44001,124.505708 C244.44001,131.265151 238.991375,136.745253 232.26109,136.745253 C225.537289,136.745253 220.080009,131.265151 220.080009,124.505708 C220.080009,117.746265 225.537289,112.266164 232.26109,112.266164 C238.991375,112.266164 244.44001,117.746265 244.44001,124.505708" id="Fill-12" fill="#6D6D6D"></path>
                                    <path d="M177.240007,102.136886 L170.015108,104.194595 C170.015108,104.194595 159.182043,120.55219 155.460384,125.916544 C153.847951,128.240953 147.556679,124.175406 126.545799,123.00236 C119.260943,122.596889 96.8881677,111.946239 92.0722823,110.931478 L83.1600033,120.281153 C83.9480184,120.506656 108.522096,136.19208 126.545799,138.134869 C143.376773,139.94973 162.28271,139.964908 165.38552,135.491721 C168.548287,130.931803 177.240007,102.136886 177.240007,102.136886" id="Fill-14" fill="#131514"></path>
                                    <g id="Group-18" transform="translate(0.000000, 41.361218)">
                                        <polygon id="Clip-17" points="0 0.272061279 209.427595 0.272061279 209.427595 93.3969873 0 93.3969873"></polygon>
                                        <path d="M180.850169,0.272061279 L180.850169,9.23382486 L154.908242,27.9052496 L145.64419,62.6315415 L134.897804,62.6315415 L134.897804,28.2759466 C134.897804,28.2759466 116.3697,16.9187431 114.977726,15.1758166 C111.690343,11.052625 94.5563652,21.1936821 85.9786191,15.2083339 C71.7297071,5.26454834 46.1728861,6.38531074 40.2457002,5.26454834 C34.3163628,4.14378594 33.4557913,4.6532234 31.130097,5.49867279 C29.1895083,6.20321395 25.052311,19.2686588 25.052311,19.2686588 L-0.00107571431,52.5490155 C-0.00107571431,52.5490155 7.74621888,48.746661 9.22855322,47.2552016 C10.7108876,45.7594065 24.8285624,29.7717417 35.5771,30.5174714 C46.3256376,31.2632011 54.257955,32.1975311 54.257955,32.1975311 C54.257955,32.1975311 69.3028956,33.1318611 74.8600358,36.1191156 C80.4171761,39.1063701 97.5576082,56.3080136 97.0972024,62.6315415 C96.7271567,67.6565458 77.1276416,63.7653108 77.1276416,63.7653108 L124.517161,91.0104595 C124.517161,91.0104595 155.70427,96.380147 164.021694,91.0104595 C165.966585,89.7531245 168.664477,81.2682811 171.633448,74.923075 C174.593814,68.5735332 187.627169,35.4774412 187.627169,35.4774412 L204.935412,29.0238441 L209.427595,19.8236205 L206.42205,14.835469 L201.602849,25.6615569 L190.645623,29.9928592 L199.378272,12.9668091 L194.561223,3.63218067 L167.134811,64.4980336 C167.134811,64.4980336 166.026825,66.3645257 163.060005,67.6717205 C160.097488,68.9810832 159.727442,67.6717205 159.727442,67.6717205 L169.359388,44.3351494 L186.2438,13.7212101 L186.738629,12.680657 L180.850169,0.272061279 Z" id="Fill-16" fill="#2D2D2D"></path>
                                    </g>
                                    <path d="M38.6400015,49.8022833 C38.6400015,49.8022833 54.6546834,51.3780121 71.7408916,57.142553 C74.5221166,58.0792362 81.8567892,63.2266168 84.3922315,64.0254237 C91.5889208,66.2905338 93.039901,65.8528313 95.1678616,65.7105781 C102.640517,65.2050318 105.840004,60.8367615 105.840004,60.8367615 C105.840004,60.8367615 87.8051612,64.0254237 80.5459482,58.1842848 C70.6133096,50.1918385 38.6400015,49.8022833 38.6400015,49.8022833" id="Fill-19" fill="#8E8E8E"></path>
                                    <path d="M161.270004,110.381789 C161.1658,110.680841 160.312623,110.631374 159.357413,110.278357 L143.507432,104.358018 C142.556563,104.005001 141.866206,103.474352 141.970411,103.175299 C142.076787,102.878495 142.929963,102.927962 143.885174,103.280979 L159.735155,109.201319 C160.681682,109.556584 161.372038,110.087233 161.270004,110.381789" id="Fill-21" fill="#141414"></path>
                                    <path d="M162.109952,108.693781 C162.001396,108.990564 161.152486,108.945597 160.199362,108.590357 L144.343639,102.67044 C143.394857,102.317448 142.704439,101.786837 142.810825,101.487806 C142.912867,101.191023 143.772633,101.238238 144.721414,101.593478 L160.570624,107.511147 C161.525919,107.868635 162.211995,108.396999 162.109952,108.693781" id="Fill-23" fill="#141414"></path>
                                    <path d="M162.949977,106.161467 C162.843589,106.458242 161.99466,106.413276 161.035002,106.058045 L145.185433,100.138279 C144.23663,99.7830484 143.546197,99.2546986 143.650413,98.9556751 C143.754629,98.6588999 144.610072,98.7061142 145.558875,99.0590968 L161.414957,104.981111 C162.36376,105.334094 163.052022,105.864692 162.949977,106.161467" id="Fill-25" fill="#141414"></path>
                                    <path d="M163.789949,104.473278 C163.681378,104.770017 162.832359,104.725056 161.879112,104.369869 L146.021339,98.4508262 C145.070263,98.0956387 144.386271,97.5673535 144.490498,97.2683665 C144.590383,96.9693796 145.450259,97.018836 146.399163,97.3717755 L162.256937,103.293066 C163.205841,103.648254 163.892005,104.176539 163.789949,104.473278" id="Fill-27" fill="#141414"></path>
                                    <path d="M164.6296,102.784849 C164.523214,103.083873 163.674303,103.03441 162.716835,102.681428 L146.867598,96.7594115 C145.914473,96.4064287 145.226225,95.8780788 145.33044,95.5790552 C145.434654,95.2822799 146.290078,95.3294941 147.238861,95.6847252 L163.094612,101.604493 C164.043395,101.959724 164.733814,102.488074 164.6296,102.784849" id="Fill-29" fill="#141414"></path>
                                    <path d="M165.470744,100.25274 C165.364365,100.549487 164.506817,100.504525 163.555916,100.149329 L147.705397,94.2301356 C146.750154,93.8749391 146.066287,93.3443923 146.170495,93.0476458 C146.270361,92.7486513 147.13008,92.798109 148.07881,93.1533056 L163.929329,99.0702506 C164.882401,99.4276953 165.568439,99.9559939 165.470744,100.25274" id="Fill-31" fill="#141414"></path>
                                    <path d="M166.310005,98.5635903 C166.20363,98.8626003 165.352624,98.8153882 164.395242,98.4601733 L148.545261,92.5406743 C147.596564,92.1877076 146.906207,91.6571335 147.010412,91.3603717 C147.116788,91.0613616 147.967793,91.1085737 148.923004,91.4637886 L164.772985,97.3832876 C165.721682,97.7385025 166.412039,98.2668285 166.310005,98.5635903" id="Fill-33" fill="#141414"></path>
                                    <path d="M166.309189,96.0329018 C166.20714,96.3297134 165.351674,96.2824934 164.398501,95.9294675 L148.541965,90.0089762 C147.593135,89.6537017 146.902682,89.1252872 147.011244,88.826227 C147.113292,88.5294155 147.97093,88.5766355 148.91976,88.93191 L164.771954,94.8501527 C165.725126,95.2076757 166.415579,95.7360903 166.309189,96.0329018" id="Fill-35" fill="#141414"></path>
                                    <path d="M167.150005,94.3428726 C167.043627,94.6418671 166.192605,94.5946574 165.239547,94.241709 L149.384914,88.3202679 C148.436198,87.9673195 147.747999,87.4367727 147.850034,87.1377782 C147.956412,86.8410317 148.807435,86.8882414 149.762664,87.245686 L165.612955,93.1626309 C166.561671,93.5178274 167.252041,94.0461261 167.150005,94.3428726" id="Fill-37" fill="#141414"></path>
                                    <path d="M167.989187,91.8107675 C167.887139,92.1097332 167.031672,92.0625281 166.0785,91.7073658 L150.226307,85.7887439 C149.273134,85.4335817 148.582681,84.9030861 148.691243,84.6063683 C148.793291,84.3096504 149.650929,84.3546077 150.60193,84.7120178 L166.456295,90.6306397 C167.405125,90.9858019 168.095578,91.5140496 167.989187,91.8107675" id="Fill-39" fill="#141414"></path>
                                    <path d="M168.829629,90.1241991 C168.723253,90.4209457 167.872247,90.373736 166.919208,90.0207874 L151.064884,84.0993442 C150.116186,83.7463956 149.428,83.2180967 149.530034,82.9191021 C149.63641,82.6201074 150.493929,82.6673171 151.442626,83.0247618 L167.292608,88.9417089 C168.241306,89.2991537 168.933833,89.8252044 168.829629,90.1241991" id="Fill-41" fill="#141414"></path>
                                    <path d="M169.669159,87.5900256 C169.567111,87.8890125 168.711645,87.8418041 167.758474,87.4888646 L151.906304,81.567574 C150.953133,81.2123865 150.262681,80.6841013 150.371243,80.3851143 C150.477633,80.0883754 151.330928,80.1355839 152.279756,80.4907714 L168.136269,86.4098139 C169.087269,86.7650014 169.775549,87.2932867 169.669159,87.5900256" id="Fill-43" fill="#141414"></path>
                                    <path d="M170.510005,85.9018076 C170.401448,86.2008021 169.550366,86.1535925 168.599413,85.800644 L152.741499,79.8792029 C151.792716,79.5262545 151.104469,78.9957077 151.210854,78.6967132 C151.312897,78.3999667 152.170492,78.4471764 153.119275,78.804621 L168.972846,84.7215659 C169.921629,85.0767625 170.612048,85.6050611 170.510005,85.9018076" id="Fill-45" fill="#141414"></path>
                                    <path d="M111.720004,87.4748224 L120.101192,105.513312 L126.722606,105.513312 L126.722606,102.943516 L139.002859,102.943516 C139.002859,102.943516 140.932249,102.685235 141.061582,98.6720994 C141.193035,94.658964 141.061582,69.2344821 141.061582,69.2344821 L120.101192,67.5285198 L111.720004,87.4748224 Z" id="Fill-47" fill="#141414"></path>
                                    <polygon id="Fill-49" fill="#141414" points="189.645521 38.8288989 204.960008 70.5915008 195.026698 74.2813718 180.600007 41.6143255"></polygon>
                                    <path d="M74.2905068,85.1148651 C58.4593269,82.7994296 16.1347137,60.898999 15.6384453,59.3748328 C15.1443251,57.8549904 18.1197877,56.1059827 15.6384453,53.1073749 C13.1571028,50.110929 8.19441781,47.3631059 9.43616322,45.1146905 C10.6757603,42.8662751 28.6166183,51.4080917 28.6166183,51.4080917 C28.6166183,51.4080917 28.7949313,55.3536283 33.2613477,57.6042056 C37.7277642,59.8504591 70.8617426,70.5909665 70.8617426,70.5909665 C70.8617426,70.5909665 97.6323129,78.7241767 97.4389615,80.7196454 C97.2499069,82.7151141 80.1168278,85.9688306 74.2905068,85.1148651" id="Fill-51" fill="#6B7AFE"></path>
                                    <path d="M186.190532,83.5316691 C187.481299,81.9175646 191.052422,78.8148491 191.506342,75.7510798 C191.786009,73.8470424 187.707184,63.9525389 185.31281,59.3893401 C181.870764,52.8420478 177.200337,42.8025778 167.599179,41.0954351 C161.147493,39.9486853 141.517072,39.8556471 127.441254,47.1104624 C121.090678,50.3862723 115.477991,55.9902006 115.198325,56.8491811 C114.910054,57.7103253 120.608792,60.0016612 118.612405,66.0166885 C117.732532,68.6693588 116.742943,71.41074 115.080005,73.5679278 C122.932173,73.007535 141.740805,72.1334087 141.740805,72.1334087 C141.740805,72.1334087 163.406336,81.625468 170.647541,84.7411656 C174.231572,86.2817049 181.533013,89.3627837 186.190532,83.5316691" id="Fill-53" fill="#6B7AFE"></path>
                                    <path d="M187.320007,122.395442 C187.320007,122.395442 187.987703,90.2683161 215.55645,80.868141 C243.127344,71.4658144 256.20001,85.7091559 256.20001,85.7091559 C256.20001,85.7091559 236.302249,86.2793198 231.471653,89.1279881 C226.641058,91.9745049 230.316604,100.483933 230.316604,100.483933 C230.316604,100.483933 221.58074,97.9386351 212.267351,97.0866165 C202.953962,96.2324464 195.815415,104.117922 192.69163,110.979253 C189.563551,117.840585 190.999848,121.543424 187.320007,122.395442" id="Fill-55" fill="#5363E8"></path>
                                    <path d="M141.684814,105.516664 L159.642011,111.744524 L161.280006,118.474114 C161.280006,118.474114 156.175103,132.546046 151.48458,132.524696 C146.789717,132.503346 133.436262,132.503346 133.436262,132.503346 C133.436262,132.503346 124.90784,124.29632 130.316478,110.873435 C132.605332,105.194275 141.684814,105.516664 141.684814,105.516664" id="Fill-57" fill="#9B9B9B"></path>
                                    <path d="M162.960006,119.017932 C162.960006,125.546453 157.695533,130.836507 151.203176,130.836507 C144.700252,130.836507 139.440006,125.546453 139.440006,119.017932 C139.440006,112.493748 144.700252,107.201525 151.203176,107.201525 C157.695533,107.201525 162.960006,112.493748 162.960006,119.017932" id="Fill-59" fill="#C4C5CA"></path>
                                    <path d="M150.358904,112.402594 C146.759114,112.402594 143.833871,115.370585 143.833871,119.020115 C143.833871,122.667447 146.759114,125.637637 150.358904,125.637637 C153.960898,125.637637 156.897163,122.667447 156.897163,119.020115 C156.897163,115.370585 153.960898,112.402594 150.358904,112.402594 M150.358904,126.615975 C146.192582,126.615975 142.800006,123.210479 142.800006,119.020115 C142.800006,114.829751 146.192582,111.422058 150.358904,111.422058 C154.531839,111.422058 157.920006,114.829751 157.920006,119.020115 C157.920006,123.210479 154.531839,126.615975 150.358904,126.615975" id="Fill-61" fill="#8E8E8E"></path>
                                    <path d="M44.760595,134.212933 C43.3000607,134.212933 38.5452815,133.946442 35.2167217,130.686718 C32.8790089,128.397023 31.7744932,125.167147 31.935345,121.086629 C32.4372026,108.07545 44.9235915,108.02002 45.1037455,108.047735 L91.5598896,110.452554 L91.4505104,112.582354 L45.0351154,110.179667 L45.024392,110.179667 C44.4753512,110.179667 34.4961056,110.322506 34.0778909,121.167643 C33.9427754,124.625636 34.832822,127.318266 36.7222945,129.166651 C39.9307517,132.309118 44.9879322,132.081001 45.0329707,132.076737 L116.556259,125.333437 L116.760005,127.456841 L45.1938225,134.202273 C45.1530734,134.206537 45.0008004,134.212933 44.760595,134.212933" id="Fill-63" fill="#AFB5B3"></path>
                                    <polygon id="Fill-65" fill="#969696" points="44.5200018 117.712168 97.8913551 113.110271 105.840004 121.078528 45.5119621 125.771868"></polygon>
                                    <path d="M103.827027,112.9326 C111.251196,116.353698 116.759659,118.18267 119.750398,111.265912 C120.922182,108.557543 138.600006,112.930407 138.600006,122.373514 C138.600006,131.05126 127.957191,132.847337 119.750398,131.05126 C98.7442762,126.454708 66.3686183,102.028948 66.360018,101.366658 C66.3449676,100.517963 77.3661937,100.153923 78.9615409,100.724106 C86.0051493,103.246069 100.100966,111.215472 103.827027,112.9326" id="Fill-67" fill="#C4C5CA"></path>
                                    <path d="M183.960007,31.8762152 L230.183448,125.222994 C230.183448,125.222994 231.392607,127.307592 233.204194,126.376544 C235.325601,125.28564 233.877623,122.803565 233.877623,122.803565 L187.852123,30.3878339 L183.960007,31.8762152 Z" id="Fill-69" fill="#9B9B9B"></path>
                                    <path d="M185.640007,32.4886498 L230.521713,122.313141 C230.521713,122.313141 231.520762,124.705639 232.411923,123.928293 C233.309557,123.148788 231.665333,120.736856 231.665333,120.736856 L187.312282,31.2319404 L185.640007,32.4886498 Z" id="Fill-71" fill="#C4C5CA"></path>
                                    <path d="M191.520008,29.1216742 C191.520008,32.6189838 188.51244,35.4524729 184.803327,35.4524729 C181.089788,35.4524729 178.080007,32.6189838 178.080007,29.1216742 C178.080007,25.6243645 181.089788,22.7908754 184.803327,22.7908754 C188.51244,22.7908754 191.520008,25.6243645 191.520008,29.1216742" id="Fill-73" fill="#2D2D2D"></path>
                                    <polygon id="Fill-75" fill="#1E1F23" points="217.560009 87.3862556 211.578778 90.3193952 206.640008 80.5909373 212.616932 77.6577978"></polygon>
                                    <path d="M220.920009,81.4620941 C220.920009,81.4620941 227.605897,79.1804067 234.946304,79.3556077 C242.293106,79.5308087 247.80001,82.5988633 247.80001,82.5988633 L243.107522,83.5665432 C243.107522,83.5665432 241.521329,82.5214489 238.09737,81.7167467 C234.50072,80.8733372 228.874425,80.2927293 220.920009,81.4620941" id="Fill-77" fill="#6B7AFE"></path>
                                    <g id="Group-81" transform="translate(172.200007, 0.000000)">
                                        <polygon id="Clip-80" points="0.416220017 0.320103942 15.8965399 0.320103942 15.8965399 17.1936667 0.416220017 17.1936667"></polygon>
                                        <path d="M0.416220017,1.49165811 C0.416220017,1.49165811 6.17442025,15.2716029 10.3912204,17.1828476 C10.8091204,17.3748349 14.4211206,14.9523431 14.7529206,14.6266117 L14.9923206,14.3936383 C16.5505207,12.8728398 16.0444206,9.72769899 13.8625206,7.3677648 L8.78682035,1.87563277 C6.67212027,-0.413115099 2.01432008,0.145589613 0.416220017,1.49165811" id="Fill-79" fill="#2D2D2D"></path>
                                    </g>
                                    <path d="M188.662192,30.3878339 L187.618962,29.9053239 C187.648003,29.8483 190.384525,24.0647592 189.258642,20.9635355 C188.094782,17.7701964 181.511492,11.8726077 181.440007,11.8155838 L182.217403,10.9733845 C182.498874,11.2256056 189.082164,17.1231943 190.344315,20.5797207 C191.637741,24.1239763 188.785056,30.1356127 188.662192,30.3878339" id="Fill-82" fill="#2D2D2D"></path>
                                    <path d="M188.955511,31.2319404 L185.938752,29.8492639 L186.407439,28.8745199 C187.067562,27.5047255 188.772878,23.1033484 187.982931,20.9413061 C187.065361,18.4357417 181.837192,13.5147875 180.589561,12.4305458 L179.760007,11.7091494 L182.006624,9.28517147 L182.820774,10.0065679 C183.533707,10.6356428 189.80927,16.2608174 191.122913,19.8441824 C192.535575,23.683042 189.749859,29.6045044 189.428599,30.2657845 L188.955511,31.2319404 Z" id="Fill-84" fill="#2D2D2D"></path>
                                    <path d="M187.320007,29.1216742 C187.320007,30.7539803 185.998403,32.0760469 184.378973,32.0760469 C182.757475,32.0760469 181.440007,30.7539803 181.440007,29.1216742 C181.440007,27.489368 182.757475,26.1673014 184.378973,26.1673014 C185.998403,26.1673014 187.320007,27.489368 187.320007,29.1216742" id="Fill-86" fill="#000000"></path>
                                    <path d="M186.480007,29.1216742 C186.480007,30.2878172 185.543101,31.2319404 184.381079,31.2319404 C183.219058,31.2319404 182.280007,30.2878172 182.280007,29.1216742 C182.280007,27.9555311 183.219058,27.0114079 184.381079,27.0114079 C185.543101,27.0114079 186.480007,27.9555311 186.480007,29.1216742" id="Fill-88" fill="#6D6D6D"></path>
                                    <path d="M30.2400012,54.8669223 L23.8966859,48.8942101 C23.8966859,48.8942101 18.6335491,37.7426002 22.2960976,37.9888101 C25.9564594,38.2371425 29.6802326,47.9136155 29.6802326,47.9136155 C29.6802326,47.9136155 28.3201698,50.8341742 30.2400012,54.8669223" id="Fill-90" fill="#141414"></path>
                                    <path d="M136.920005,52.3346028 C136.920005,52.3346028 171.05303,60.5308778 170.513682,64.2064718 C169.756026,69.3818279 139.306406,72.5931588 139.306406,72.5931588 C139.306406,72.5931588 159.497713,68.3634444 158.7636,64.8632863 C158.194288,62.1718444 136.920005,52.3346028 136.920005,52.3346028" id="Fill-92" fill="#5363E8"></path>
                                    <path d="M79.8000032,85.1057405 L105.26711,103.068285 L127.337177,108.889738 L132.203844,97.3949982 C132.203844,97.3949982 118.759008,90.486988 119.909895,87.154308 C121.067199,83.8194806 141.120006,72.5931588 141.120006,72.5931588 L114.608972,74.0168488 L79.8000032,85.1057405 Z" id="Fill-94" fill="#C4C5CA"></path>
                                    <path d="M147.000006,105.513312 C147.000006,109.709307 143.615381,113.110271 139.43893,113.110271 C135.26463,113.110271 131.880005,109.709307 131.880005,105.513312 C131.880005,101.317318 135.26463,97.9163537 139.43893,97.9163537 C143.615381,97.9163537 147.000006,101.317318 147.000006,105.513312" id="Fill-96" fill="#C4C5CA"></path>
                                    <path d="M139.017873,101.04655 C136.816654,101.04655 135.02923,102.861456 135.02923,105.089131 C135.02923,107.318934 136.816654,109.13384 139.017873,109.13384 C141.219091,109.13384 143.008648,107.318934 143.008648,105.089131 C143.008648,102.861456 141.219091,101.04655 139.017873,101.04655 M139.017873,109.733845 C136.471113,109.733845 134.400005,107.650851 134.400005,105.089131 C134.400005,102.529539 136.471113,100.448673 139.017873,100.448673 C141.566765,100.448673 143.640006,102.529539 143.640006,105.089131 C143.640006,107.650851 141.566765,109.733845 139.017873,109.733845" id="Fill-98" fill="#8E8E8E"></path>
                                    <path d="M48.7200019,121.551336 C48.7200019,123.881123 46.8391184,125.771868 44.5189355,125.771868 C42.1987526,125.771868 40.3200016,123.881123 40.3200016,121.551336 C40.3200016,119.221549 42.1987526,117.330803 44.5189355,117.330803 C46.8391184,117.330803 48.7200019,119.221549 48.7200019,121.551336" id="Fill-100" fill="#C4C5CA"></path>
                                    <path d="M18.4800007,52.3346028 C18.4800007,52.3346028 24.0235591,54.9174845 25.8706753,58.6906826 L27.7200011,62.4638808 L18.4800007,56.7503613 L18.4800007,52.3346028 Z" id="Fill-102" fill="#F79857"></path>
                                    <path d="M174.905525,57.3726335 C174.905525,57.3726335 144.622606,51.773041 134.250253,46.8205509 C131.826766,45.6643946 131.8801,44.8447316 131.8801,44.8447316 C136.765474,41.7278552 166.561989,37.8107289 173.322578,40.6601363 C180.490638,43.6842614 178.237819,46.5444539 178.237819,46.5444539 L184.800007,59.0874548 C184.800007,59.0874548 178.850091,58.1577844 174.905525,57.3726335" id="Fill-104" fill="#6B7AFE"></path>
                                    <polygon id="Fill-106" fill="#2D2D2D" points="130.891701 133.368827 123.480005 121.208031 129.397373 108.045632 131.351989 108.927129 125.897049 121.057898 132.720005 132.251406"></polygon>
                                    <path d="M126.840005,121.55036 C126.840005,122.48468 125.90147,123.239549 124.740005,123.239549 C123.580769,123.239549 122.640005,122.48468 122.640005,121.55036 C122.640005,120.617991 123.580769,119.863123 124.740005,119.863123 C125.90147,119.863123 126.840005,120.617991 126.840005,121.55036" id="Fill-108" fill="#E5E5E5"></path>
                                    <path d="M124.740005,120.338493 C124.242529,120.338493 123.83884,120.69332 123.83884,121.128201 C123.83884,121.565244 124.242529,121.920072 124.740005,121.920072 C125.237481,121.920072 125.64117,121.565244 125.64117,121.128201 C125.64117,120.69332 125.237481,120.338493 124.740005,120.338493 M124.740005,124.083655 C123.119131,124.083655 121.800005,122.757379 121.800005,121.128201 C121.800005,119.499023 123.119131,118.17491 124.740005,118.17491 C126.360879,118.17491 127.680005,119.499023 127.680005,121.128201 C127.680005,122.757379 126.360879,124.083655 124.740005,124.083655" id="Fill-110" fill="#000106"></path>
                                    <path d="M92.4000037,81.0273891 C92.4000037,81.0273891 100.616274,92.118759 104.365069,93.3482625 C115.266141,96.9226508 143.640006,71.7490523 143.640006,71.7490523 C143.640006,71.7490523 120.525676,72.946257 114.54746,74.014267 C108.828228,75.0349056 92.4000037,81.0273891 92.4000037,81.0273891" id="Fill-112" fill="#5363E8"></path>
                                    <path d="M212.00301,36.2965794 C211.419313,36.4787278 210.827001,36.6825605 210.245458,36.9340987 C202.607865,40.2409589 198.808453,48.5243727 201.761398,55.4286632 C204.712188,62.3351221 213.295327,65.2538329 220.93292,61.9426358 C221.516616,61.6910975 222.065851,61.402696 222.600009,61.0991153 L212.00301,36.2965794 Z" id="Fill-114" fill="#2D2D2D"></path>
                                    <polygon id="Fill-116" fill="#C4C5CA" points="224.280009 60.1244388 220.759329 61.6197743 210.000008 36.9478084 213.522857 35.4524729"></polygon>
                                    <path d="M192.360008,39.25264 C192.360008,39.25264 205.890595,36.5027199 208.060353,39.1027222 C210.230111,41.7027246 198.088425,50.6463898 198.088425,50.6463898 L192.360008,39.25264 Z" id="Fill-118" fill="#6B7AFE"></path>
                                    <path d="M15.9600006,59.0874548 C15.9600006,59.0874548 64.2299723,80.1435197 71.5562051,80.8239397 C78.8802945,81.5043597 96.6000038,79.6065748 96.6000038,79.6065748 C96.6000038,79.6065748 82.4062315,85.7433982 75.3372099,86.0955645 C71.2089699,86.3042556 49.0866619,76.5675103 33.5296701,68.8372433 C22.4438667,63.330841 15.9600006,59.0874548 15.9600006,59.0874548" id="Fill-120" fill="#5363E8"></path>
                                    <path d="M181.440007,52.3346028 C181.440007,52.3346028 170.997186,51.1053752 161.905404,49.6222119 C154.891309,48.4806257 148.680006,47.1839815 148.680006,46.1862172 C148.680006,45.5232882 154.33871,45.4963216 160.719709,45.6783461 C168.976065,45.9120567 178.448574,46.4918387 178.448574,46.4918387 L181.440007,52.3346028 Z" id="Fill-122" fill="#5363E8"></path>
                                    <polygon id="Fill-124" fill="#9B9B9B" points="79.8000032 85.2547562 107.030139 99.5006157 127.889654 105.575805 132.720005 97.4670171 127.805403 108.889738 105.517953 103.104758"></polygon>
                                    <path d="M102.121663,122.973419 C79.2754167,110.797381 69.5607752,102.383614 69.5607752,102.383614 C69.5607752,102.383614 65.7362651,100.039295 66.4484005,102.224121 C67.4136442,105.193301 95.4550461,122.381331 106.428794,126.831822 C122.651323,133.410335 128.520005,131.387186 128.520005,131.387186 C128.520005,131.387186 115.034478,129.853438 102.121663,122.973419" id="Fill-126" fill="#9B9B9B"></path>
                                </g>
                                <g id="Group-51" transform="translate(242.900000, 53.460076)">
                                    <path d="M16.1792091,80.6268829 C13.8667243,83.0761683 12.865343,82.7505593 10.9604717,83.2943103 C9.05399574,83.8380613 8.1906253,83.9278845 6.70139152,85.0169904 C5.20573863,86.1077004 -0.123728367,90.4368564 0.826300078,90.9822114 C1.7779333,91.5243584 2.7311713,91.3896237 3.9588263,90.7079299 C5.17685263,90.0278402 6.5441233,88.8056035 6.5441233,88.8056035 C6.5441233,88.8056035 2.18554686,92.3407869 2.45835908,93.0240846 C2.7311713,93.7025703 10.5143435,96.0347648 12.143193,95.7652953 C13.775252,95.4926178 15.0045117,91.8210957 16.360549,90.595651 C17.7246101,89.3718103 20.5040852,88.531322 21.3241266,87.985967 C22.1361442,87.4422161 16.1792091,80.6268829 16.1792091,80.6268829" id="Fill-1" fill="#F5B29C"></path>
                                    <path d="M12.1436744,95.7654557 C10.9176242,96.0349252 8.87795162,97.2619739 8.46712851,96.5786762 C8.05951496,95.9001905 8.19110673,93.8615253 9.14915907,92.2286683 C10.1056066,90.5958114 10.7812181,89.5740728 11.7344561,90.2525585 C12.6909036,90.9374602 11.193646,93.5872438 11.193646,93.99626 C11.193646,94.4036723 12.1436744,95.7654557 12.1436744,95.7654557" id="Fill-3" fill="#EAA694"></path>
                                    <path d="M9.14980098,96.7172605 C8.06015687,97.8047625 6.29008698,97.6010564 5.95147887,97.2610115 C5.61126598,96.9225706 4.93404976,94.8806975 5.61126598,93.5878854 C6.29008698,92.2934693 7.40219798,90.7985551 8.01201353,90.594849 C8.62664342,90.3911429 9.28460231,90.594849 9.14980098,91.4786448 C9.01179009,92.3640447 8.80958809,95.0154322 8.80958809,95.0154322 L9.14980098,96.7172605 Z" id="Fill-5" fill="#EAA694"></path>
                                    <path d="M6.20166372,96.6704242 C7.46301906,96.6704242 4.83920739,97.4884566 4.11384783,96.7618513 C3.39009306,96.035246 3.02420372,94.4039931 3.11567606,93.8602421 C3.20554361,93.3164911 4.55355694,91.2842418 5.02215206,90.7757785 C5.5822195,90.1662641 6.7232165,90.3908221 6.54348139,91.1174274 C6.35572239,91.8424287 5.75072117,94.4954202 5.75072117,94.4954202 C5.75072117,94.4954202 6.01871906,96.6704242 6.20166372,96.6704242" id="Fill-7" fill="#EAA694"></path>
                                    <path d="M3.93122412,95.5835638 C2.75010768,96.2187419 1.93809012,96.8523161 1.21273057,96.5780346 C0.488975789,96.3069611 -0.420933211,94.7687393 0.214558789,93.8608837 C0.850050789,92.953028 2.93465712,91.3217751 3.57014912,91.1389208 C4.2072459,90.9592744 4.48005812,91.6810678 4.38858579,92.409277 C4.29711346,93.1374863 3.93122412,95.5835638 3.93122412,95.5835638" id="Fill-9" fill="#EAA694"></path>
                                    <path d="M47.3950255,105.342531 C47.7528909,109.796798 50.4296602,118.119877 47.3950255,117.840783 C44.3571811,117.563294 43.13755,117.706049 38.8864937,118.126293 C34.6370421,118.538517 22.2738341,119.818497 22.5610893,116.631378 C22.8563685,113.43624 24.8430833,112.327886 27.0560719,112.220419 C32.406401,111.960574 37.4630558,103.722506 39.3743461,104.48921 C41.9580383,105.528593 47.3950255,105.342531 47.3950255,105.342531" id="Fill-11" fill="#000000"></path>
                                    <path d="M62.4887628,72.1081175 C57.3839647,72.1802968 35.6344115,57.298522 26.1822704,62.8515188 C21.0887057,65.8493672 22.849147,76.5527605 29.1511093,88.7735238 C33.3074837,96.8383614 35.4450477,109.325386 37.6724793,109.878761 C41.4581501,110.826716 53.4634926,110.064823 55.0795038,109.140928 C56.6987246,108.212221 46.4554281,85.4388385 45.0785287,84.514943 C43.7032342,83.5894436 55.8209112,96.5496441 62.4887628,93.5870834 L62.4887628,72.1081175 Z" id="Fill-13" fill="#3D3D3D"></path>
                                    <path d="M48.9681891,33.4158239 C45.9367639,37.0488504 41.7434796,53.5955618 33.406659,63.5932016 C29.2230033,68.6152793 14.3772041,81.0445606 14.3772041,81.0445606 L20.4865931,89.3756598 C20.4865931,89.3756598 37.5871051,77.6136363 40.3553468,75.4899599 C52.298103,66.3263924 60.299525,45.1938872 60.299525,45.1938872 L48.9681891,33.4158239 Z" id="Fill-15" fill="#FF912B"></path>
                                    <path d="M47.4844116,37.0844588 C42.7037786,34.2822967 36.7275861,31.0262067 36.7275861,31.0262067 L39.8312264,21.3621958 C39.8312264,21.3621958 53.8858701,25.4282983 55.5163244,26.1693395 C57.1531977,26.9071727 47.4844116,37.0844588 47.4844116,37.0844588" id="Fill-17" fill="#DDAC9E"></path>
                                    <path d="M39.6290244,6.1812778 C38.3323639,4.17308832 36.7612865,3.0358628 35.0666411,2.53221145 C27.6878729,-0.371001779 17.6820835,8.40119333 17.7767654,15.1908627 C17.8345374,19.069299 19.9640775,24.2148835 22.7242952,28.5552675 C22.8430488,29.6620173 22.8895874,30.9820971 22.8382345,32.616558 C23.1367231,33.6559404 24.7431057,33.489126 26.1745675,33.160309 C28.430885,35.6865857 30.7176934,37.3322745 32.4444342,37.2248075 C34.1406844,37.1237565 35.2094664,36.8430591 36.3231821,36.3698834 C36.3215774,36.3811113 36.3103439,36.3907352 36.3103439,36.4019631 C36.7051192,36.2126929 40.707435,34.2943266 41.1856588,34.0729766 C41.1856588,34.0729766 52.1013572,25.4194764 39.6290244,6.1812778" id="Fill-19" fill="#DDAC9E"></path>
                                    <path d="M31.8089422,2.65299154 C29.427452,1.37942728 27.7793452,3.10210739 22.8831682,6.12080756 C18.1490738,9.06091244 17.5569108,7.10565448 16.4094947,12.4389053 C15.8333795,15.1688881 18.0688349,18.869282 18.0688349,18.869282 C18.0688349,18.869282 19.6704031,17.3807837 20.9975544,17.0166791 C22.3231008,16.6541784 21.0055782,17.2364251 23.8075202,18.5629208 C26.1713579,19.6841065 27.3091454,20.932007 27.3091454,20.932007 C27.3091454,20.932007 36.1996142,18.3912944 37.2603724,20.0273593 C37.9456125,21.0811776 43.4997484,22.5792998 46.3819292,23.0925751 C46.3819292,23.0925751 46.7767046,17.6951648 44.0196964,11.9079862 C40.3094501,4.12384597 32.3641954,2.95293677 31.8089422,2.65299154" id="Fill-21" fill="#300901"></path>
                                    <path d="M32.6782504,20.193853 C33.0088346,18.9507644 33.2318987,16.9778626 34.796557,17.2409162 C37.092994,17.6242687 39.736063,20.4937982 38.739496,23.1467898 C37.7461386,25.7997813 32.6782504,20.193853 32.6782504,20.193853" id="Fill-23" fill="#DDAC9E"></path>
                                    <path d="M44.3794875,12.3795578 C42.4858498,13.1366389 30.0456124,15.6228159 30.0456124,15.6228159 C30.0456124,15.6228159 27.5485782,22.6418552 24.6792355,24.2378205 C21.8098929,25.8402017 11.2119404,30.2944686 12.1459211,27.9221745 C14.1486838,24.7911954 16.6055985,20.5807342 16.6055985,20.5807342 C16.6055985,20.5807342 12.904981,14.7727038 15.6331032,10.2943771 C17.3325629,7.51146273 22.6347486,3.92976376 24.8381085,3.24165411 C28.7826523,2.00979347 33.0577803,0.567810764 37.7341028,3.86239638 C42.4136348,7.156982 44.3794875,12.3795578 44.3794875,12.3795578" id="Fill-25" fill="#F78628"></path>
                                    <g id="Group-29" transform="translate(22.466889, 0.003850)">
                                        <mask id="mask-2" fill="white">
                                            <use xlink:href="#path-1"></use>
                                        </mask>
                                        <g id="Clip-28"></g>
                                        <path d="M14.6825933,3.28079135 C19.3669397,6.57377298 22.0388947,12.3673676 22.0388947,12.3673676 C20.4501647,13.0073577 11.2916979,14.8904363 8.44642688,15.467871 C7.57342777,11.0392678 4.77469532,5.55363839 1.47527221,3.58715252 C1.66303121,3.51176522 2.10755466,3.27116743 2.27605632,3.21181998 C4.44571588,2.41463933 10.0094804,-0.015398258 14.6825933,3.28079135" id="Fill-27" fill="#FF912B" mask="url(#mask-2)"></path>
                                    </g>
                                    <path d="M50.6352323,24.3414379 C55.1783582,25.2990171 72.3831807,26.4522825 84.7736699,67.0812278 C84.7736699,67.0812278 66.9927322,85.6922682 63.3530962,85.6922682 C60.2189652,80.3477895 45.8112703,54.6920461 45.3555134,40.3572302 C45.1420779,33.6734239 50.6352323,24.3414379 50.6352323,24.3414379" id="Fill-30" fill="#FF912B"></path>
                                    <path d="M84.8774991,99.3524478 C88.3101187,96.1492894 90.2165947,93.7449155 94.0295467,94.1410999 C97.8408939,94.5453042 98.7604316,96.837399 98.7604316,100.042161 C98.7604316,103.248528 99.9912962,108.384489 99.8179802,112.161874 C99.6895979,114.875817 97.2278688,120.746403 88.4593631,119.545018 C82.7399351,118.744629 89.2296564,114.0642 89.9871115,110.861042 C90.7558001,107.656279 84.8774991,99.3524478 84.8774991,99.3524478" id="Fill-32" fill="#232121"></path>
                                    <path d="M67.4916576,40.449299 C67.4916576,39.9360237 71.6512416,37.2124568 71.8390006,37.4706985 C87.1678379,59.1277068 92.460395,81.9620402 87.8643115,92.2901009 C84.054569,100.869818 61.0099601,106.45329 58.9718923,107.566456 C58.5032972,107.82149 87.7583961,95.8108485 89.5332803,98.9562635 C91.6917065,102.773748 94.98792,112.898103 91.3402601,115.063483 C82.3567141,120.40315 59.7951433,117.14706 55.4478003,117.09894 C48.2535816,117.023553 43.0428681,116.176649 43.0428681,112.471443 C43.0332395,97.5062608 68.976077,82.2956691 68.976077,82.2956691 L51.2272348,54.9188496 C51.2272348,54.9188496 67.4691907,61.5112288 67.4916576,40.449299" id="Fill-34" fill="#3D3D3D"></path>
                                    <path d="M89.5340827,117.146739 C74.6016255,119.515825 56.0648374,121.302665 44.7992974,121.172742 C37.6018691,121.092543 33.1309582,115.340652 36.1816407,109.786051 C43.0934186,97.2412825 59.1540346,85.4391593 59.1540346,85.4391593 L47.5819821,55.7237293 C47.5819821,55.7237293 59.3417936,56.0477344 65.4495778,47.8561819 C67.0174457,51.0352806 72.720826,72.4933947 73.6997404,76.5995968 C74.1699403,78.5997664 76.4727964,83.4020981 67.8647684,92.846363 C61.5884825,99.7242516 45.8151217,110.788542 52.8600962,112.009174 C63.5527305,113.853757 85.54621,110.56238 92.3825633,106.870006 C94.6067853,112.841643 91.0040592,116.914161 89.5340827,117.146739" id="Fill-36" fill="#383838"></path>
                                    <path d="M74.6908512,46.3328771 C73.8082234,41.9908892 64.4700215,31.816811 60.0809543,30.082903 C53.4131026,27.4443473 48.4655727,29.7268183 47.5829449,38.4123982 C46.693898,47.0947701 50.6352323,55.8156377 50.6352323,55.8156377 L53.8800929,55.0762005 C53.8800929,55.0762005 47.0501587,41.471198 49.3819008,35.9165972 C51.1936949,31.6098969 61.4706918,26.4707283 70.3627655,46.0505757 C72.8806618,51.5939486 74.6908512,46.3328771 74.6908512,46.3328771" id="Fill-38" fill="#383838"></path>
                                    <mask id="mask-4" fill="white">
                                        <use xlink:href="#path-3"></use>
                                    </mask>
                                    <g id="Clip-41"></g>
                                    <polygon id="Fill-40" fill="#232121" mask="url(#mask-4)" points="33.8030391 98.9937967 53.9125094 98.9937967 53.9125094 96.5541352 33.8030391 96.5541352"></polygon>
                                    <path d="M20.9555092,95.6924744 L20.9555092,99.9959667 L20.9699522,99.9959667 C21.1512921,101.593536 24.2485132,102.8671 28.0582556,102.8671 C31.8696028,102.8671 34.9700335,101.593536 35.1465591,99.9959667 L35.1642116,99.9959667 L35.1642116,95.6924744 L20.9555092,95.6924744 Z" id="Fill-42" fill="#000000" mask="url(#mask-4)"></path>
                                    <polygon id="Fill-43" fill="#000000" mask="url(#mask-4)" points="20.104656 97.4876546 21.4494598 97.4876546 21.4494598 96.7321776 20.104656 96.7321776"></polygon>
                                    <path d="M20.6133706,96.6300037 L20.0404649,96.6300037 C19.8382629,96.5610324 19.5943367,96.5177248 19.3279436,96.5177248 C19.0711791,96.5177248 18.8240433,96.5610324 18.6234461,96.6300037 L18.0473309,96.6300037 L18.0473309,97.3983126 L18.0473309,97.4047286 C18.0473309,97.7752492 18.6218413,98.0767984 19.3279436,98.0767984 C20.0404649,98.0767984 20.6133706,97.7752492 20.6133706,97.4047286 L20.6133706,97.1849826 L20.6133706,96.6300037 Z" id="Fill-44" fill="#000000" mask="url(#mask-4)"></path>
                                    <path d="M20.6133706,96.7191853 C20.6133706,97.0688541 20.0404649,97.3527595 19.3279436,97.3527595 C18.6218413,97.3527595 18.0473309,97.0688541 18.0473309,96.7191853 C18.0473309,96.3695165 18.6218413,96.0872151 19.3279436,96.0872151 C20.0404649,96.0872151 20.6133706,96.3695165 20.6133706,96.7191853" id="Fill-45" fill="#232121" mask="url(#mask-4)"></path>
                                    <path d="M35.1645326,95.6935972 C35.1645326,97.2767306 31.9854678,98.5615227 28.0585766,98.5615227 C24.1364997,98.5615227 20.9558301,97.2767306 20.9558301,95.6935972 C20.9558301,94.1088598 24.1364997,92.8240676 28.0585766,92.8240676 C31.9854678,92.8240676 35.1645326,94.1088598 35.1645326,95.6935972" id="Fill-46" fill="#232121" mask="url(#mask-4)"></path>
                                    <path d="M32.8679351,95.8711583 C32.8679351,96.7308944 30.7143233,97.428628 28.0584161,97.428628 C25.4041137,97.428628 23.256921,96.7308944 23.256921,95.8711583 C23.256921,95.0114223 25.4041137,94.3136887 28.0584161,94.3136887 C30.7143233,94.3136887 32.8679351,95.0114223 32.8679351,95.8711583" id="Fill-47" fill="#FFFFFF" mask="url(#mask-4)"></path>
                                    <path d="M24.0169437,126.434455 C17.2158955,118.295834 15.0398169,115.131171 12.3710714,115.269114 C11.392157,115.265906 10.1516637,115.620387 8.45862319,116.379072 C7.83596941,116.654957 7.24701597,116.804128 6.68052941,116.804128 C5.07896119,116.818564 4.08078941,115.524147 3.6844093,114.086977 C3.2366763,112.608102 3.1211323,110.728232 3.1211323,108.635031 C3.1211323,105.23779 3.4533213,101.296799 3.4533213,98.0888283 C3.4533213,96.3100087 3.34259163,94.752539 3.06015074,93.7131566 C2.7456143,92.6272586 2.3989823,92.3176895 2.04914074,92.2856098 C1.58856952,92.2294703 1.26119486,91.8140381 1.32057163,91.3601103 C1.3735293,90.9029745 1.78916674,90.5757616 2.24652841,90.6302971 C4.99711752,91.2638712 5.02439874,94.5039213 5.11587108,98.0888283 C5.11587108,101.402662 4.78528686,105.338841 4.78528686,108.635031 C4.78528686,110.652844 4.91848341,112.436476 5.27955841,113.600969 C5.69038152,114.803958 6.05627086,115.121547 6.68052941,115.135983 C6.94210819,115.139191 7.31762619,115.060596 7.7862213,114.858494 C9.55950074,114.067729 10.9925673,113.607385 12.3710714,113.600969 C16.5130029,113.740516 18.5109512,117.428078 25.2943469,125.356577 C27.770519,128.351217 33.6103053,129.884627 40.234828,129.862171 C49.593892,129.884627 60.4470041,126.899611 65.3544145,122.36354 C67.2063281,120.64888 67.9557593,118.554076 67.9637832,116.202633 C67.979831,112.354673 65.7957284,107.876346 62.8605899,104.437402 C59.9591516,100.977606 56.2585341,98.6213514 53.7727333,98.661451 C53.6748419,98.661451 53.5769504,98.6662629 53.4806637,98.6758869 C53.0233021,98.7127785 52.6205029,98.3759416 52.5787786,97.9139939 C52.5418687,97.4568581 52.8836864,97.0542578 53.3410481,97.0157622 C53.4806637,97.0029303 53.6250937,96.9981183 53.7727333,96.9981183 C60.4534232,97.1873886 69.4802982,107.345427 69.6327521,116.202633 C69.6375664,118.914972 68.7051905,121.553528 66.4809685,123.592193 C60.960533,128.601439 49.940524,131.50786 40.234828,131.530316 C33.388846,131.50786 27.1655177,130.097957 24.0169437,126.434455" id="Fill-48" fill="#232121" mask="url(#mask-4)"></path>
                                    <path d="M46.2577194,89.7412081 C44.6914563,90.3491184 36.7927401,91.8584685 36.4412938,92.8176517 C36.0882427,93.7800428 37.3849031,93.9661051 38.8709273,94.1345235 C40.3585563,94.3077539 39.747136,94.5708075 39.747136,94.5708075 C39.747136,94.5708075 37.9321323,96.6479684 36.0802188,100.505553 C35.1446333,102.459207 35.8828311,104.695162 37.7459781,101.819217 C37.2228206,103.517837 37.7989358,105.522819 39.602706,103.577184 C39.2544692,105.102574 40.1483304,106.233384 41.6889171,104.618171 C41.3743807,105.473095 41.9649389,106.27188 43.1893843,105.742564 C43.9564681,105.416955 46.5818846,104.242838 48.7194486,100.330718 C50.8521982,96.4202025 52.5195623,93.7944787 52.5195623,93.7944787 L46.2577194,89.7412081 Z" id="Fill-49" fill="#F5B29C" mask="url(#mask-4)"></path>
                                    <path d="M61.1943491,33.7837781 C63.9529621,36.4078979 66.5655403,43.0419807 66.5655403,43.0419807 C68.3115385,52.0146739 73.4099175,70.5920306 69.897059,77.2950848 C66.3777813,83.9933271 51.7470223,96.1804067 51.7470223,96.1804067 L44.0039695,90.1590462 C44.0039695,90.1590462 57.1920333,71.637829 57.8098728,68.7554676 C58.515975,65.4897537 50.8226703,44.6956894 49.893504,40.8204612 C47.857041,32.3016957 57.3990496,30.1764153 61.1943491,33.7837781" id="Fill-50" fill="#FF912B" mask="url(#mask-4)"></path>
                                </g>
                            </g>
                        </g>
                    </g>
                    <path d="M333.35384,176 L6.64616,176 C6.29028,176 6,176.31947 6,176.711138 C6,177.102805 6.29028,177.422275 6.64616,177.422275 L333.35384,177.422275 C333.70972,177.422275 334,177.102805 334,176.711138 C334,176.31947 333.70972,176 333.35384,176" id="Fill-242" fill-opacity="0.2" fill="#2D3554"></path>
                </g>
            </g>
        </g>
    </g>
</svg>